<?xml version="1.0" standalone="no"?>
<!DOCTYPE svg PUBLIC "-//W3C//DTD SVG 20010904//EN"
 "http://www.w3.org/TR/2001/REC-SVG-20010904/DTD/svg10.dtd">
<svg version="1.0" xmlns="http://www.w3.org/2000/svg"
 width="2366.000000pt" height="1412.000000pt" viewBox="0 0 2366.000000 1412.000000"
 preserveAspectRatio="xMidYMid meet">

<g transform="translate(0.000000,1412.000000) scale(0.100000,-0.100000)"
fill="#000000" stroke="none">
<path d="M17596 13921 c-749 -143 -1031 -200 -1037 -211 -8 -13 -120 -612
-116 -617 1 -1 232 43 512 96 281 54 512 96 514 95 3 -3 -122 -204 -1053
-1686 -223 -356 -406 -649 -406 -651 0 -3 2252 423 2257 427 2 2 121 621 120
623 -1 1 -272 -50 -602 -113 -330 -63 -605 -113 -611 -112 -7 2 32 73 86 158
491 779 1370 2183 1368 2185 -2 1 -466 -86 -1032 -194z"/>
<path d="M15110 13489 c-41 -5 -120 -21 -175 -35 -343 -88 -609 -242 -881
-511 -366 -361 -579 -788 -624 -1251 -28 -289 4 -512 102 -712 46 -92 64 -117
148 -200 81 -82 109 -103 190 -143 165 -81 328 -109 527 -89 452 46 842 234
1177 568 418 417 637 960 596 1474 -32 391 -202 675 -489 816 -151 74 -381
107 -571 83z m95 -655 c158 -41 272 -159 315 -328 75 -294 -61 -732 -314
-1012 -142 -158 -374 -274 -613 -306 -211 -29 -395 62 -477 235 -166 352 67
1008 449 1262 113 75 265 136 395 158 61 10 191 6 245 -9z"/>
<path d="M13340 13111 c-30 -10 -72 -26 -93 -35 -152 -66 -340 -257 -461 -469
-15 -27 -29 -47 -31 -45 -1 2 9 81 22 176 14 95 23 175 20 178 -4 4 -552 -113
-564 -120 0 -1 -42 -273 -92 -606 -50 -333 -143 -953 -206 -1379 -64 -425
-115 -774 -113 -776 3 -3 630 136 637 142 2 2 41 261 87 576 94 654 111 756
158 958 78 331 166 513 314 651 79 73 139 101 227 106 l71 4 122 321 c67 176
119 323 116 326 -15 16 -162 10 -214 -8z"/>
<path d="M8736 12899 c-149 -38 -273 -72 -277 -76 -4 -5 -133 -282 -287 -618
-154 -335 -417 -909 -585 -1275 -168 -366 -461 -1004 -651 -1419 -191 -415
-344 -756 -341 -759 3 -3 162 35 354 83 l349 89 199 435 198 434 705 178 c387
98 705 177 706 176 1 -1 46 -162 99 -357 54 -195 98 -356 99 -357 2 -2 639
157 643 161 1 1 -33 130 -76 286 -43 157 -156 566 -251 910 -680 2473 -598
2180 -608 2179 -4 0 -128 -32 -276 -70z m55 -1617 c78 -293 140 -535 137 -538
-12 -11 -898 -230 -898 -222 0 8 583 1297 598 1322 9 16 14 -4 163 -562z"/>
<path d="M11760 12755 c-207 -57 -402 -225 -550 -476 -29 -49 -55 -88 -56 -86
-2 2 7 82 20 178 13 96 22 176 20 178 -5 5 -532 -118 -554 -129 -11 -6 -21
-50 -37 -162 -184 -1329 -355 -2589 -352 -2592 4 -5 630 141 637 148 2 3 35
240 72 528 83 630 110 804 156 1011 72 323 156 503 304 646 64 63 169 111 241
111 l56 0 118 320 c65 176 115 323 112 326 -14 14 -135 13 -187 -1z"/>
<path d="M21060 10864 c-327 -39 -601 -113 -836 -224 -336 -159 -552 -384
-671 -700 -69 -181 -102 -467 -69 -585 50 -174 202 -275 414 -275 153 0 305
63 401 165 79 84 96 134 111 311 41 492 111 716 276 881 113 114 238 163 419
165 123 0 190 -22 265 -89 56 -50 110 -151 130 -243 24 -110 23 -338 -4 -710
-14 -195 -29 -402 -32 -460 l-7 -105 -226 -1 c-157 0 -265 -6 -356 -18 -693
-94 -1327 -428 -1617 -850 -57 -82 -125 -230 -148 -321 -30 -117 -60 -413 -60
-592 0 -238 32 -401 108 -548 46 -89 154 -198 239 -243 155 -82 401 -109 688
-78 222 25 552 73 648 96 294 68 599 207 809 367 31 23 60 43 65 43 4 0 42
-27 83 -60 79 -63 194 -125 295 -159 71 -23 223 -51 282 -51 l41 0 32 138 c18
75 40 171 50 212 16 68 17 76 2 85 -138 87 -202 262 -202 557 -1 86 2 167 5
180 3 13 37 484 76 1048 88 1275 88 1329 -4 1553 -141 346 -484 531 -977 526
-63 -1 -167 -7 -230 -15z m15 -2265 c150 -28 205 -99 205 -268 0 -139 -50
-855 -66 -950 -20 -115 -47 -200 -86 -269 -118 -208 -377 -332 -698 -336 -116
-1 -129 1 -181 25 -147 69 -224 201 -236 404 -6 112 20 529 42 672 57 363 242
597 550 695 108 34 354 49 470 27z"/>
<path d="M23070 10840 c-336 -62 -506 -420 -339 -716 109 -194 386 -290 606
-210 213 77 345 297 314 520 -25 178 -155 330 -329 388 -64 21 -189 30 -252
18z m196 -127 c97 -33 160 -88 211 -186 25 -47 28 -62 28 -157 0 -93 -3 -112
-27 -162 -37 -80 -96 -140 -171 -174 -82 -38 -205 -41 -280 -6 -169 76 -252
255 -203 437 16 63 30 89 73 142 83 103 243 149 369 106z"/>
<path d="M23065 10593 c-116 -7 -105 19 -105 -233 l0 -220 70 0 70 0 0 80 0
80 38 0 c50 0 72 -24 92 -99 l15 -56 78 -3 c72 -3 78 -1 73 15 -2 10 -12 46
-22 81 -13 50 -25 70 -56 96 -38 33 -38 34 -15 40 42 10 77 54 77 98 0 50 -22
83 -68 101 -41 17 -156 26 -247 20z m145 -111 c47 -38 -4 -99 -76 -90 -27 3
-29 6 -32 56 l-3 52 44 0 c29 0 53 -7 67 -18z"/>
<path d="M19075 10553 c-42 -10 -249 -114 -356 -179 -172 -103 -325 -224 -376
-297 -14 -20 -28 -36 -30 -33 -2 2 5 90 17 196 11 106 18 195 16 197 -3 3
-948 -146 -954 -151 -1 -2 -54 -758 -117 -1682 -63 -923 -129 -1885 -146
-2137 -17 -252 -29 -460 -27 -462 2 -3 221 33 486 78 l482 82 0 26 c0 14 25
428 55 920 30 492 71 1153 90 1469 20 316 40 600 45 630 26 145 132 282 285
369 82 47 310 122 439 144 37 6 70 16 72 22 4 11 64 758 64 793 0 22 -7 24
-45 15z"/>
<path d="M15451 10099 c-52 -5 -141 -18 -198 -29 -512 -104 -1002 -485 -1297
-1009 -149 -266 -245 -561 -281 -868 -27 -228 -128 -1729 -128 -1908 0 -364
85 -603 267 -751 215 -175 539 -197 1119 -78 571 117 904 275 1173 556 227
238 369 522 463 924 61 263 74 389 142 1374 54 777 57 904 24 1045 -83 361
-335 609 -718 705 -187 47 -351 58 -566 39z m134 -464 c71 -36 134 -109 164
-190 28 -75 51 -210 51 -304 0 -66 -121 -1921 -151 -2305 -19 -251 -53 -396
-130 -555 -110 -226 -304 -353 -564 -368 -76 -4 -100 -2 -155 17 -153 51 -246
177 -277 376 -16 98 -15 108 46 1004 91 1333 96 1384 142 1620 99 497 339 746
710 737 95 -2 112 -5 164 -32z"/>
<path d="M12120 9403 c-168 -16 -391 -68 -513 -119 -261 -110 -511 -322 -654
-557 -28 -46 -39 -57 -41 -42 -1 11 4 101 12 200 7 99 12 182 9 185 -3 3 -906
-171 -965 -187 -12 -3 -18 -14 -18 -31 0 -67 -272 -4101 -289 -4287 -11 -115
-18 -211 -16 -214 3 -2 950 237 962 243 2 1 51 601 178 2191 41 517 81 974 89
1016 57 297 280 567 600 724 143 71 271 108 347 102 109 -9 214 -90 267 -205
36 -79 39 -183 13 -507 -11 -143 -39 -492 -61 -775 -43 -554 -64 -814 -110
-1400 -53 -688 -64 -830 -59 -834 4 -5 958 213 967 220 11 8 222 3037 222
3174 0 137 -20 326 -45 435 -83 363 -258 573 -538 645 -79 20 -267 32 -357 23z"/>
<path d="M3945 9283 c-313 -20 -749 -111 -1115 -233 -453 -151 -930 -394
-1291 -657 -467 -340 -837 -767 -1065 -1228 -79 -161 -125 -287 -174 -480 -94
-366 -97 -688 -10 -955 144 -441 510 -803 1052 -1038 289 -126 647 -217 988
-252 618 -63 1226 -246 1585 -478 183 -118 310 -290 366 -497 32 -115 32 -375
0 -520 -169 -781 -903 -1605 -1736 -1950 -198 -82 -431 -147 -645 -180 -170
-26 -440 -31 -600 -10 -296 37 -558 133 -716 262 -23 18 -46 33 -51 33 -12 0
-523 -556 -523 -569 0 -8 105 -113 155 -154 61 -50 208 -140 298 -182 165 -78
379 -139 602 -171 144 -21 497 -23 650 -5 588 70 1145 277 1698 629 638 407
1151 912 1520 1499 90 145 264 495 330 668 168 436 233 792 215 1170 -11 241
-63 440 -169 643 -214 411 -595 668 -1192 806 -273 63 -560 105 -1372 201
-270 32 -386 55 -536 105 -343 114 -563 295 -691 566 -67 143 -82 216 -82 399
0 175 7 221 60 387 179 555 757 1122 1449 1418 561 240 1146 283 1636 120 64
-21 153 -57 199 -80 45 -23 86 -38 90 -33 4 4 89 123 189 263 158 222 179 257
165 267 -25 18 -217 91 -339 128 -300 91 -626 128 -940 108z"/>
<path d="M8025 8544 c-457 -50 -875 -251 -1224 -588 -377 -366 -613 -846 -671
-1366 -11 -105 -136 -1908 -146 -2115 -22 -453 111 -781 372 -917 281 -147
652 -126 1260 73 385 125 638 255 844 431 257 220 443 549 540 953 66 273 76
375 156 1515 48 699 64 975 60 1060 -15 335 -159 604 -416 777 -103 70 -249
127 -402 157 -78 16 -300 28 -373 20z m-82 -474 c77 -12 140 -45 189 -98 112
-122 144 -321 114 -707 -23 -293 -122 -1755 -141 -2070 -17 -289 -27 -386 -57
-523 -70 -333 -240 -530 -543 -633 -54 -19 -91 -24 -165 -24 -84 0 -102 3
-151 28 -117 57 -198 188 -227 368 l-16 101 73 1072 c98 1443 103 1504 152
1751 53 267 166 489 302 596 89 71 207 122 322 139 72 11 84 11 148 0z"/>
<path d="M19330 5155 c-111 -18 -263 -56 -375 -94 -219 -76 -541 -262 -775
-450 -116 -94 -447 -417 -437 -427 10 -10 173 13 327 46 469 100 902 320 1272
647 88 78 268 270 268 287 0 11 -192 4 -280 -9z"/>
<path d="M16555 5063 c-271 -46 -528 -158 -765 -334 -179 -132 -405 -384 -545
-605 -62 -98 -178 -324 -171 -331 3 -3 42 7 88 22 514 169 987 533 1334 1025
67 94 149 229 143 234 -2 2 -40 -3 -84 -11z"/>
<path d="M18000 5065 c-527 -73 -1021 -316 -1391 -686 -94 -95 -259 -297 -259
-318 0 -15 182 -22 288 -11 122 12 257 42 366 81 171 63 395 195 566 332 163
131 448 440 545 590 21 32 28 31 -115 12z"/>
<path d="M20739 4970 c-455 -57 -1008 -293 -1519 -648 -93 -65 -94 -66 -65
-74 17 -4 93 -11 170 -14 580 -27 1271 218 1818 645 96 75 97 76 70 84 -38 12
-393 17 -474 7z"/>
<path d="M15165 4895 c-488 -113 -910 -428 -1250 -935 -91 -134 -192 -317
-181 -327 8 -8 126 15 222 43 370 107 736 374 1053 769 92 114 234 320 296
428 l27 47 -34 -1 c-18 0 -78 -11 -133 -24z"/>
<path d="M13755 4711 c-447 -172 -827 -466 -1126 -871 -113 -153 -261 -410
-309 -534 -10 -27 -10 -27 28 -20 116 21 330 101 462 172 454 243 831 690
1051 1245 13 34 15 47 6 47 -6 0 -57 -18 -112 -39z"/>
<path d="M20880 4174 c-180 -25 -455 -102 -475 -134 -7 -11 206 -120 349 -179
177 -74 416 -144 601 -175 321 -55 682 -50 985 15 99 22 310 86 310 95 0 9
-210 104 -350 159 -499 194 -1013 274 -1420 219z"/>
<path d="M18500 4073 c-1353 -47 -2792 -208 -4373 -488 -2361 -420 -4890
-1078 -7704 -2006 l-332 -110 -107 -205 c-58 -113 -104 -207 -102 -210 3 -2
81 23 174 57 653 234 1626 558 2429 808 3290 1022 6585 1726 9075 1940 1008
87 1955 94 2687 20 61 -6 117 -9 124 -7 7 2 -46 45 -118 96 l-131 92 -158 10
c-136 8 -1241 11 -1464 3z"/>
<path d="M19212 3778 c25 -29 83 -87 130 -128 302 -268 736 -438 1293 -506
156 -19 624 -31 649 -17 16 9 13 15 -22 59 -97 123 -310 260 -546 351 -352
136 -805 229 -1361 279 -88 7 -166 14 -174 14 -8 0 6 -23 31 -52z"/>
<path d="M17706 3681 c-13 -20 197 -183 344 -268 364 -209 809 -315 1398 -330
195 -5 232 -4 232 8 0 24 -167 176 -263 240 -358 237 -861 359 -1484 359 -122
0 -224 -4 -227 -9z"/>
<path d="M16625 3560 c-82 -12 -205 -41 -210 -50 -6 -10 100 -108 180 -165
364 -261 872 -396 1545 -412 214 -5 243 -3 230 9 -38 37 -198 154 -311 228
-143 93 -400 224 -544 275 -138 50 -300 91 -434 109 -115 17 -365 20 -456 6z"/>
<path d="M15240 3374 c-19 -2 -54 -7 -78 -10 l-42 -5 17 -31 c10 -17 52 -65
93 -107 275 -279 783 -458 1450 -510 140 -11 378 -16 386 -9 6 7 -176 145
-285 217 -352 231 -734 380 -1111 435 -107 16 -365 28 -430 20z"/>
<path d="M14035 3083 c-117 -9 -235 -26 -235 -33 0 -5 37 -38 83 -75 327 -262
719 -425 1182 -491 206 -30 670 -20 768 15 29 11 -248 189 -448 289 -346 172
-688 266 -1070 292 -127 9 -200 10 -280 3z"/>
<path d="M12631 2831 l-84 -6 64 -59 c130 -121 344 -262 524 -346 360 -169
805 -251 1194 -220 86 6 160 14 164 17 21 13 -172 176 -304 258 -233 145 -478
239 -770 299 -216 43 -584 70 -788 57z"/>
</g>
</svg>
